<?xml version="1.0" encoding="UTF-8"?>
<!DOCTYPE svg PUBLIC "-//W3C//DTD SVG 1.1//EN" "http://www.w3.org/Graphics/SVG/1.1/DTD/svg11.dtd">
<svg xmlns="http://www.w3.org/2000/svg" version="1.1" width="545px" height="199px" style="shape-rendering:geometricPrecision; text-rendering:geometricPrecision; image-rendering:optimizeQuality; fill-rule:evenodd; clip-rule:evenodd" xmlns:xlink="http://www.w3.org/1999/xlink">
<g><path style="opacity:0.004" fill="#fefffe" d="M 529.5,0.5 C 530.833,1.16667 530.833,1.16667 529.5,0.5 Z"/></g>
<g><path style="opacity:0.004" fill="#fefffe" d="M 359.5,2.5 C 360.833,3.16667 360.833,3.16667 359.5,2.5 Z"/></g>
<g><path style="opacity:0.004" fill="#fefffe" d="M 438.5,4.5 C 439.833,5.16667 439.833,5.16667 438.5,4.5 Z"/></g>
<g><path style="opacity:0.004" fill="#fefffe" d="M 257.5,6.5 C 258.833,7.16667 258.833,7.16667 257.5,6.5 Z"/></g>
<g><path style="opacity:0.004" fill="#fefffe" d="M 152.5,9.5 C 153.833,10.1667 153.833,10.1667 152.5,9.5 Z"/></g>
<g><path style="opacity:0.004" fill="#fefffe" d="M 444.5,11.5 C 445.833,12.1667 445.833,12.1667 444.5,11.5 Z"/></g>
<g><path style="opacity:0.004" fill="#fefffe" d="M 139.5,14.5 C 140.833,15.1667 140.833,15.1667 139.5,14.5 Z"/></g>
<g><path style="opacity:0.004" fill="#fefffe" d="M 8.5,16.5 C 9.83333,17.1667 9.83333,17.1667 8.5,16.5 Z"/></g>
<g><path style="opacity:0.004" fill="#fefffe" d="M 46.5,18.5 C 47.8333,19.1667 47.8333,19.1667 46.5,18.5 Z"/></g>
<g><path style="opacity:0.004" fill="#fefffe" d="M 231.5,23.5 C 232.833,24.1667 232.833,24.1667 231.5,23.5 Z"/></g>
<g><path style="opacity:0.004" fill="#fefffe" d="M 481.5,26.5 C 482.833,27.1667 482.833,27.1667 481.5,26.5 Z"/></g>
<g><path style="opacity:0.004" fill="#fefffe" d="M 82.5,27.5 C 83.8333,28.1667 83.8333,28.1667 82.5,27.5 Z"/></g>
<g><path style="opacity:0.004" fill="#fefffe" d="M 129.5,30.5 C 130.833,31.1667 130.833,31.1667 129.5,30.5 Z"/></g>
<g><path style="opacity:1" fill="#222222" d="M 155.5,43.5 C 155.427,45.0269 156.094,46.0269 157.5,46.5C 158.182,53.5678 158.849,60.7345 159.5,68C 158.749,88.6266 158.249,109.793 158,131.5C 156.326,135.089 153.493,136.755 149.5,136.5C 133.5,136.5 117.5,136.5 101.5,136.5C 101.263,137.791 101.596,138.791 102.5,139.5C 104.126,144.008 105.126,148.675 105.5,153.5C 115.705,151.55 120.205,155.55 119,165.5C 117.833,166.667 116.667,167.833 115.5,169C 100.5,169.667 85.5,169.667 70.5,169C 65.7762,166.565 64.2762,162.731 66,157.5C 69.7846,154.036 74.2846,152.702 79.5,153.5C 79.9935,148.697 80.9935,144.03 82.5,139.5C 83.404,138.791 83.7373,137.791 83.5,136.5C 67.5,136.5 51.5,136.5 35.5,136.5C 31.5075,136.755 28.6742,135.089 27,131.5C 26.3333,103.167 26.3333,74.8333 27,46.5C 28.1667,44.6667 29.6667,43.1667 31.5,42C 72.1667,41.3333 112.833,41.3333 153.5,42C 154.416,42.2784 155.082,42.7784 155.5,43.5 Z M 34.5,44.5 C 73.919,44.0119 113.252,44.5119 152.5,46C 153.701,46.9025 154.535,48.0692 155,49.5C 155.5,71.4975 155.667,93.4975 155.5,115.5C 113.5,115.5 71.5,115.5 29.5,115.5C 29.3334,93.4975 29.5,71.4975 30,49.5C 31.025,47.313 32.525,45.6464 34.5,44.5 Z M 75.5,68.5 C 80.8281,68.0358 82.1615,69.8691 79.5,74C 76.8882,74.7414 75.2215,73.7414 74.5,71C 75.2524,70.3292 75.5858,69.4959 75.5,68.5 Z M 132.5,56.5 C 137.493,56.997 138.493,59.1637 135.5,63C 132.678,63.6987 131.012,62.5321 130.5,59.5C 131.193,58.4822 131.859,57.4822 132.5,56.5 Z M 98.5,92.5 C 103.123,91.4082 104.956,93.0748 104,97.5C 99.6928,98.9612 97.8595,97.2945 98.5,92.5 Z M 49.5,99.5 C 53.9699,100.265 54.9699,102.432 52.5,106C 47.3823,105.824 46.3823,103.658 49.5,99.5 Z M 155.5,119.5 C 155.665,122.518 155.498,125.518 155,128.5C 154.426,130.492 153.259,131.992 151.5,133C 112.5,133.667 73.5,133.667 34.5,133C 32.3333,132.167 30.8333,130.667 30,128.5C 29.5026,125.854 29.3359,123.187 29.5,120.5C 71.4841,120.067 113.484,119.733 155.5,119.5 Z M 86.5,137.5 C 91.1532,136.999 95.4865,137.666 99.5,139.5C 100.111,144.108 101.111,148.608 102.5,153C 95.8333,153.667 89.1667,153.667 82.5,153C 84.2221,147.945 85.5554,142.779 86.5,137.5 Z M 70.5,157.5 C 85.1705,157.333 99.8371,157.5 114.5,158C 117.167,160.333 117.167,162.667 114.5,165C 99.8333,165.667 85.1667,165.667 70.5,165C 67.9009,162.421 67.9009,159.921 70.5,157.5 Z"/></g>
<g><path style="opacity:1" fill="#1d1d1d" d="M 510.5,56.5 C 510.573,54.9731 509.906,53.9731 508.5,53.5C 508.027,52.0937 507.027,51.427 505.5,51.5C 498.296,48.0692 490.962,47.7358 483.5,50.5C 481.973,50.427 480.973,51.0937 480.5,52.5C 475.339,58.4124 475.339,64.2457 480.5,70C 491.079,74.1425 501.746,77.9759 512.5,81.5C 512.833,82.5 513.5,83.1667 514.5,83.5C 517.474,85.3267 519.641,87.9934 521,91.5C 523.643,105.505 518.143,114.338 504.5,118C 491.208,121.231 479.708,118.064 470,108.5C 467.965,105.439 466.799,102.105 466.5,98.5C 469.244,97.795 471.911,97.795 474.5,98.5C 480.087,108.792 488.754,112.959 500.5,111C 511.425,109.099 515.258,102.932 512,92.5C 509.736,89.5665 506.902,87.3999 503.5,86C 493.444,83.7378 483.778,80.4044 474.5,76C 467.075,67.2965 466.575,58.1298 473,48.5C 476.532,45.1504 480.699,42.9838 485.5,42C 498.582,39.1344 509.416,42.6344 518,52.5C 518.931,54.4595 519.764,56.4595 520.5,58.5C 518.389,59.9488 516.056,60.9488 513.5,61.5C 511.949,60.1996 510.949,58.5329 510.5,56.5 Z"/></g>
<g><path style="opacity:1" fill="#1a1a1a" d="M 241.5,100.5 C 236.04,99.1709 230.207,98.5042 224,98.5C 217.99,98.5005 212.157,98.8338 206.5,99.5C 204.065,105.377 201.898,111.377 200,117.5C 197.281,118.444 194.448,118.777 191.5,118.5C 200.319,93.5216 209.152,68.5216 218,43.5C 221.455,42.2086 224.955,42.2086 228.5,43.5C 238.107,68.324 247.107,93.324 255.5,118.5C 252.552,118.777 249.719,118.444 247,117.5C 245.056,111.835 243.222,106.168 241.5,100.5 Z M 222.5,53.5 C 223.167,53.5 223.833,53.5 224.5,53.5C 228.638,65.9136 232.971,78.2469 237.5,90.5C 228.167,91.8333 218.833,91.8333 209.5,90.5C 214.116,78.2672 218.45,65.9338 222.5,53.5 Z"/></g>
<g><path style="opacity:1" fill="#1c1c1c" d="M 316.5,98.5 C 316.66,100.153 317.326,101.486 318.5,102.5C 327.261,83.7125 335.594,64.0458 343.5,43.5C 346.366,42.792 349.2,42.1253 352,41.5C 352.414,41.9574 352.914,42.2907 353.5,42.5C 355.706,66.7616 357.706,90.7616 359.5,114.5C 359.43,115.772 359.097,116.938 358.5,118C 356.19,118.497 353.857,118.663 351.5,118.5C 351.5,116.5 351.5,114.5 351.5,112.5C 351.813,108.958 351.479,105.625 350.5,102.5C 349.004,88.8814 348.004,75.2147 347.5,61.5C 347.663,59.1432 347.497,56.8098 347,54.5C 345.961,55.2438 345.461,56.2438 345.5,57.5C 338.02,76.4682 330.52,95.4682 323,114.5C 320.236,119.7 317.57,119.7 315,114.5C 307.2,95.595 299.7,76.595 292.5,57.5C 292.631,56.6236 292.298,55.9569 291.5,55.5C 290.516,58.4281 290.183,61.4281 290.5,64.5C 290.13,77.4327 289.13,90.266 287.5,103C 287.833,103.333 288.167,103.667 288.5,104C 287.991,108.704 286.991,113.204 285.5,117.5C 283.5,117.5 281.5,117.5 279.5,117.5C 279.5,116.167 279.5,114.833 279.5,113.5C 280.668,90.816 282.168,68.1493 284,45.5C 284.29,43.9559 284.956,42.6226 286,41.5C 288.8,42.1253 291.634,42.792 294.5,43.5C 302.234,61.7098 309.568,80.0431 316.5,98.5 Z"/></g>
<g><path style="opacity:1" fill="#1a1a1a" d="M 432.5,100.5 C 427.04,99.1709 421.207,98.5042 415,98.5C 408.99,98.5005 403.157,98.8338 397.5,99.5C 395.177,105.483 392.844,111.483 390.5,117.5C 387.916,118.393 385.249,118.726 382.5,118.5C 390.83,93.6785 399.663,69.0119 409,44.5C 409.667,43.1667 410.667,42.1667 412,41.5C 414.261,41.8051 416.761,42.4718 419.5,43.5C 429.104,68.313 438.104,93.313 446.5,118.5C 443.552,118.777 440.719,118.444 438,117.5C 436.056,111.835 434.222,106.168 432.5,100.5 Z M 413.5,53.5 C 414.167,53.5 414.833,53.5 415.5,53.5C 419.634,65.9019 423.967,78.2352 428.5,90.5C 419.167,91.8333 409.833,91.8333 400.5,90.5C 403.428,83.7145 405.762,76.7145 407.5,69.5C 409.104,68.713 409.771,67.3797 409.5,65.5C 411.033,61.5669 412.367,57.5669 413.5,53.5 Z"/></g>
<g><path style="opacity:0.004" fill="#fefffe" d="M 176.5,43.5 C 177.833,44.1667 177.833,44.1667 176.5,43.5 Z"/></g>
<g><path style="opacity:0.502" fill="#868686" d="M 155.5,43.5 C 156.906,43.9731 157.573,44.9731 157.5,46.5C 156.094,46.0269 155.427,45.0269 155.5,43.5 Z"/></g>
<g><path style="opacity:0.004" fill="#fefffe" d="M 335.5,47.5 C 336.833,48.1667 336.833,48.1667 335.5,47.5 Z"/></g>
<g><path style="opacity:0.004" fill="#d1d1d1" d="M 483.5,50.5 C 483.027,51.9063 482.027,52.573 480.5,52.5C 480.973,51.0937 481.973,50.427 483.5,50.5 Z"/></g>
<g><path style="opacity:0.004" fill="#fefffe" d="M 209.5,52.5 C 210.833,53.1667 210.833,53.1667 209.5,52.5 Z"/></g>
<g><path style="opacity:0.106" fill="#cdcdcd" d="M 224.5,53.5 C 223.833,53.5 223.167,53.5 222.5,53.5C 223.167,50.8333 223.833,50.8333 224.5,53.5 Z"/></g>
<g><path style="opacity:0.11" fill="#d1d1d1" d="M 415.5,53.5 C 414.833,53.5 414.167,53.5 413.5,53.5C 414.167,50.8333 414.833,50.8333 415.5,53.5 Z"/></g>
<g><path style="opacity:0.494" fill="#8a8a8a" d="M 505.5,51.5 C 507.027,51.427 508.027,52.0937 508.5,53.5C 506.973,53.573 505.973,52.9063 505.5,51.5 Z"/></g>
<g><path style="opacity:0.118" fill="#bbbbbb" d="M 508.5,53.5 C 509.906,53.9731 510.573,54.9731 510.5,56.5C 509.094,56.0269 508.427,55.0269 508.5,53.5 Z"/></g>
<g><path style="opacity:0.004" fill="#fefffe" d="M 263.5,56.5 C 264.833,57.1667 264.833,57.1667 263.5,56.5 Z"/></g>
<g><path style="opacity:0.004" fill="#fefffe" d="M 254.5,58.5 C 255.833,59.1667 255.833,59.1667 254.5,58.5 Z"/></g>
<g><path style="opacity:0.382" fill="#9f9f9f" d="M 292.5,57.5 C 291.833,59.8333 291.167,62.1667 290.5,64.5C 290.183,61.4281 290.516,58.4281 291.5,55.5C 292.298,55.9569 292.631,56.6236 292.5,57.5 Z"/></g>
<g><path style="opacity:0.106" fill="#bfbfbf" d="M 347.5,61.5 C 346.833,60.1667 346.167,58.8333 345.5,57.5C 345.461,56.2438 345.961,55.2438 347,54.5C 347.497,56.8098 347.663,59.1432 347.5,61.5 Z"/></g>
<g><path style="opacity:0.004" fill="#fefffe" d="M 491.5,60.5 C 492.833,61.1667 492.833,61.1667 491.5,60.5 Z"/></g>
<g><path style="opacity:0.004" fill="#fefffe" d="M 292.5,63.5 C 293.833,64.1667 293.833,64.1667 292.5,63.5 Z"/></g>
<g><path style="opacity:0.004" fill="#fefffe" d="M 364.5,64.5 C 365.833,65.1667 365.833,65.1667 364.5,64.5 Z"/></g>
<g><path style="opacity:1" fill="#353535" d="M 95.5,85.5 C 95.5106,87.0174 96.1772,88.1841 97.5,89C 100.039,89.7958 102.372,89.6291 104.5,88.5C 112.134,80.6973 119.634,72.6973 127,64.5C 125.776,58.0548 128.276,54.0548 134.5,52.5C 140.657,54.7971 142.323,58.7971 139.5,64.5C 136.78,66.1107 133.78,66.944 130.5,67C 122.654,74.5457 115.154,82.3791 108,90.5C 109.774,96.6184 107.607,100.618 101.5,102.5C 95.3929,100.618 93.2262,96.6184 95,90.5C 90.2993,86.1342 85.966,81.4675 82,76.5C 79.6378,78.769 76.9712,79.1023 74,77.5C 68.3415,84.1344 62.6748,90.801 57,97.5C 59.2024,103.862 57.2024,108.195 51,110.5C 43.8643,107.552 42.6976,103.052 47.5,97C 50.334,96.9546 52.834,96.1213 55,94.5C 59.9534,87.5447 65.2867,80.8781 71,74.5C 70.2578,66.9149 73.7578,63.7482 81.5,65C 83.9679,67.2283 85.1346,70.0617 85,73.5C 88.3362,77.6678 91.8362,81.6678 95.5,85.5 Z M 75.5,68.5 C 75.5858,69.4959 75.2524,70.3292 74.5,71C 75.2215,73.7414 76.8882,74.7414 79.5,74C 82.1615,69.8691 80.8281,68.0358 75.5,68.5 Z M 132.5,56.5 C 131.859,57.4822 131.193,58.4822 130.5,59.5C 131.012,62.5321 132.678,63.6987 135.5,63C 138.493,59.1637 137.493,56.997 132.5,56.5 Z M 98.5,92.5 C 97.8595,97.2945 99.6928,98.9612 104,97.5C 104.956,93.0748 103.123,91.4082 98.5,92.5 Z M 49.5,99.5 C 46.3823,103.658 47.3823,105.824 52.5,106C 54.9699,102.432 53.9699,100.265 49.5,99.5 Z"/></g>
<g><path style="opacity:0.373" fill="#a3a3a3" d="M 409.5,65.5 C 409.771,67.3797 409.104,68.713 407.5,69.5C 407.66,67.847 408.326,66.5137 409.5,65.5 Z"/></g>
<g><path style="opacity:0.004" fill="#fefffe" d="M 455.5,72.5 C 456.833,73.1667 456.833,73.1667 455.5,72.5 Z"/></g>
<g><path style="opacity:0.004" fill="#cecece" d="M 512.5,81.5 C 513.833,81.5 514.5,82.1667 514.5,83.5C 513.5,83.1667 512.833,82.5 512.5,81.5 Z"/></g>
<g><path style="opacity:0.004" fill="#fefffe" d="M 252.5,83.5 C 253.833,84.1667 253.833,84.1667 252.5,83.5 Z"/></g>
<g><path style="opacity:0.004" fill="#fefffe" d="M 376.5,84.5 C 377.833,85.1667 377.833,85.1667 376.5,84.5 Z"/></g>
<g><path style="opacity:0.627" fill="#939393" d="M 95.5,85.5 C 97.8875,88.0762 100.888,89.0762 104.5,88.5C 102.372,89.6291 100.039,89.7958 97.5,89C 96.1772,88.1841 95.5106,87.0174 95.5,85.5 Z"/></g>
<g><path style="opacity:0.004" fill="#fefffe" d="M 343.5,86.5 C 344.833,87.1667 344.833,87.1667 343.5,86.5 Z"/></g>
<g><path style="opacity:0.004" fill="#fefffe" d="M 532.5,88.5 C 533.833,89.1667 533.833,89.1667 532.5,88.5 Z"/></g>
<g><path style="opacity:0.625" fill="#5f5f5f" d="M 209.5,90.5 C 218.833,91.8333 228.167,91.8333 237.5,90.5C 238.043,90.56 238.376,90.8933 238.5,91.5C 228.5,92.8333 218.5,92.8333 208.5,91.5C 208.624,90.8933 208.957,90.56 209.5,90.5 Z"/></g>
<g><path style="opacity:0.624" fill="#606060" d="M 400.5,90.5 C 409.833,91.8333 419.167,91.8333 428.5,90.5C 429.043,90.56 429.376,90.8933 429.5,91.5C 419.5,92.8333 409.5,92.8333 399.5,91.5C 399.624,90.8933 399.957,90.56 400.5,90.5 Z"/></g>
<g><path style="opacity:0.245" fill="#bebebe" d="M 206.5,99.5 C 212.157,98.8338 217.99,98.5005 224,98.5C 230.207,98.5042 236.04,99.1709 241.5,100.5C 229.914,99.522 218.247,99.1887 206.5,99.5 Z"/></g>
<g><path style="opacity:0.243" fill="#bfbfbf" d="M 397.5,99.5 C 403.157,98.8338 408.99,98.5005 415,98.5C 421.207,98.5042 427.04,99.1709 432.5,100.5C 420.914,99.522 409.247,99.1887 397.5,99.5 Z"/></g>
<g><path style="opacity:0.004" fill="#fefffe" d="M 373.5,99.5 C 374.833,100.167 374.833,100.167 373.5,99.5 Z"/></g>
<g><path style="opacity:0.004" fill="#fefffe" d="M 179.5,100.5 C 180.833,101.167 180.833,101.167 179.5,100.5 Z"/></g>
<g><path style="opacity:0.122" fill="#b1b1b1" d="M 316.5,98.5 C 318.104,99.287 318.771,100.62 318.5,102.5C 317.326,101.486 316.66,100.153 316.5,98.5 Z"/></g>
<g><path style="opacity:0.004" fill="#fefffe" d="M 362.5,107.5 C 363.833,108.167 363.833,108.167 362.5,107.5 Z"/></g>
<g><path style="opacity:0.004" fill="#fefffe" d="M 267.5,108.5 C 268.833,109.167 268.833,109.167 267.5,108.5 Z"/></g>
<g><path style="opacity:0.239" fill="#a4a4a4" d="M 350.5,102.5 C 351.479,105.625 351.813,108.958 351.5,112.5C 349.852,109.272 349.519,105.938 350.5,102.5 Z"/></g>
<g><path style="opacity:0.004" fill="#fefffe" d="M 402.5,110.5 C 403.833,111.167 403.833,111.167 402.5,110.5 Z"/></g>
<g><path style="opacity:0.11" fill="#d9d9d9" d="M 279.5,113.5 C 279.5,114.833 279.5,116.167 279.5,117.5C 281.5,117.5 283.5,117.5 285.5,117.5C 283.393,118.468 281.059,118.802 278.5,118.5C 278.216,116.585 278.549,114.919 279.5,113.5 Z"/></g>
<g><path style="opacity:0.253" fill="#c0c0c0" d="M 155.5,119.5 C 113.484,119.733 71.4841,120.067 29.5,120.5C 50.1559,119.167 71.1559,118.5 92.5,118.5C 113.669,118.5 134.669,118.833 155.5,119.5 Z"/></g>
<g><path style="opacity:0.004" fill="#fefffe" d="M 474.5,119.5 C 475.833,120.167 475.833,120.167 474.5,119.5 Z"/></g>
<g><path style="opacity:0.004" fill="#fefffe" d="M 482.5,121.5 C 483.833,122.167 483.833,122.167 482.5,121.5 Z"/></g>
<g><path style="opacity:1" fill="#2f2f2f" d="M 100.5,124.5 C 98.2568,125.812 95.5902,126.478 92.5,126.5C 89.4098,126.478 86.7432,125.812 84.5,124.5C 89.8333,123.167 95.1667,123.167 100.5,124.5 Z"/></g>
<g><path style="opacity:0.758" fill="#494949" d="M 84.5,124.5 C 86.7432,125.812 89.4098,126.478 92.5,126.5C 95.5902,126.478 98.2568,125.812 100.5,124.5C 101.404,125.209 101.737,126.209 101.5,127.5C 95.5,127.5 89.5,127.5 83.5,127.5C 83.2627,126.209 83.596,125.209 84.5,124.5 Z"/></g>
<g><path style="opacity:0.004" fill="#fefffe" d="M 426.5,131.5 C 427.833,132.167 427.833,132.167 426.5,131.5 Z"/></g>
<g><path style="opacity:0.125" fill="#dadada" d="M 35.5,136.5 C 51.5,136.5 67.5,136.5 83.5,136.5C 83.7373,137.791 83.404,138.791 82.5,139.5C 67.0267,137.838 51.36,136.838 35.5,136.5 Z"/></g>
<g><path style="opacity:0.125" fill="#d2d2d2" d="M 86.5,137.5 C 90.6344,136.515 94.9677,136.182 99.5,136.5C 99.5,137.5 99.5,138.5 99.5,139.5C 95.4865,137.666 91.1532,136.999 86.5,137.5 Z"/></g>
<g><path style="opacity:0.125" fill="#dcdcdc" d="M 149.5,136.5 C 133.64,136.838 117.973,137.838 102.5,139.5C 101.596,138.791 101.263,137.791 101.5,136.5C 117.5,136.5 133.5,136.5 149.5,136.5 Z"/></g>
<g><path style="opacity:0.004" fill="#fefffe" d="M 262.5,138.5 C 263.833,139.167 263.833,139.167 262.5,138.5 Z"/></g>
<g><path style="opacity:0.004" fill="#fefffe" d="M 398.5,140.5 C 399.833,141.167 399.833,141.167 398.5,140.5 Z"/></g>
<g><path style="opacity:0.004" fill="#fefffe" d="M 22.5,149.5 C 23.8333,150.167 23.8333,150.167 22.5,149.5 Z"/></g>
<g><path style="opacity:0.004" fill="#fefffe" d="M 4.5,150.5 C 5.83333,151.167 5.83333,151.167 4.5,150.5 Z"/></g>
<g><path style="opacity:0.004" fill="#fefffe" d="M 286.5,151.5 C 285.833,150.167 285.833,150.167 286.5,151.5 Z"/></g>
<g><path style="opacity:0.004" fill="#fefffe" d="M 77.5,151.5 C 78.8333,152.167 78.8333,152.167 77.5,151.5 Z"/></g>
<g><path style="opacity:0.251" fill="#b9b9b9" d="M 428.5,152.5 C 428.917,151.876 429.584,151.543 430.5,151.5C 431.713,151.747 432.38,152.414 432.5,153.5C 431.292,152.766 429.959,152.433 428.5,152.5 Z"/></g>
<g><path style="opacity:1" fill="#343434" d="M 197.5,151.5 C 198.978,151.238 200.311,151.571 201.5,152.5C 203.697,157.756 205.697,163.089 207.5,168.5C 206.311,169.429 204.978,169.762 203.5,169.5C 203.845,166.512 202.512,165.179 199.5,165.5C 196.831,166.852 194.164,168.186 191.5,169.5C 193.298,163.438 195.298,157.438 197.5,151.5 Z M 198.5,157.5 C 199.167,157.833 199.833,158.167 200.5,158.5C 200.33,159.822 200.663,160.989 201.5,162C 200.056,162.781 198.723,162.614 197.5,161.5C 198.246,160.264 198.579,158.93 198.5,157.5 Z"/></g>
<g><path style="opacity:1" fill="#333333" d="M 216.5,151.5 C 220.215,151.196 223.715,151.863 227,153.5C 227.667,155.833 227.667,158.167 227,160.5C 226.25,161.126 225.416,161.626 224.5,162C 226.167,164.333 227.833,166.667 229.5,169C 227.741,169.798 226.074,169.631 224.5,168.5C 220.922,160.24 219.255,160.573 219.5,169.5C 218.5,169.5 217.5,169.5 216.5,169.5C 216.5,163.5 216.5,157.5 216.5,151.5 Z M 219.5,155.5 C 226.085,156.682 226.085,158.015 219.5,159.5C 219.5,158.167 219.5,156.833 219.5,155.5 Z"/></g>
<g><path style="opacity:1" fill="#222222" d="M 242.5,159.5 C 242.539,158.244 242.039,157.244 241,156.5C 240.827,160.541 240.327,164.541 239.5,168.5C 238.505,163.208 238.172,157.875 238.5,152.5C 239.5,152.5 240.5,152.5 241.5,152.5C 244.137,155.989 246.637,159.655 249,163.5C 249.499,159.514 249.666,155.514 249.5,151.5C 250.5,151.5 251.5,151.5 252.5,151.5C 252.5,157.5 252.5,163.5 252.5,169.5C 251.127,169.657 249.793,169.49 248.5,169C 246.364,165.89 244.364,162.723 242.5,159.5 Z"/></g>
<g><path style="opacity:1" fill="#333333" d="M 267.5,151.5 C 268.978,151.238 270.311,151.571 271.5,152.5C 273.697,157.756 275.697,163.089 277.5,168.5C 276.311,169.429 274.978,169.762 273.5,169.5C 273.67,168.178 273.337,167.011 272.5,166C 270.19,165.503 267.857,165.337 265.5,165.5C 265.833,168.5 264.5,169.833 261.5,169.5C 263.298,163.438 265.298,157.438 267.5,151.5 Z M 268.5,157.5 C 269.167,157.833 269.833,158.167 270.5,158.5C 270.33,159.822 270.663,160.989 271.5,162C 270.5,162.667 269.5,162.667 268.5,162C 268.034,160.701 268.034,159.201 268.5,157.5 Z"/></g>
<g><path style="opacity:1" fill="#333333" d="M 286.5,151.5 C 290.459,151.071 293.959,152.071 297,154.5C 297.825,156.701 297.325,158.534 295.5,160C 297.646,160.479 298.646,161.812 298.5,164C 298.516,166.305 297.516,167.972 295.5,169C 292.518,169.498 289.518,169.665 286.5,169.5C 286.5,163.5 286.5,157.5 286.5,151.5 Z M 289.5,155.5 C 290.833,155.5 292.167,155.5 293.5,155.5C 293.5,156.5 293.5,157.5 293.5,158.5C 292.167,158.5 290.833,158.5 289.5,158.5C 289.5,157.5 289.5,156.5 289.5,155.5 Z M 294.5,162.5 C 294.567,163.959 294.234,165.292 293.5,166.5C 290.5,166.833 289.167,165.5 289.5,162.5C 291.167,162.5 292.833,162.5 294.5,162.5 Z"/></g>
<g><path style="opacity:1" fill="#2a2a2a" d="M 333.5,152.5 C 334.833,152.5 336.167,152.5 337.5,152.5C 337.216,154.415 337.549,156.081 338.5,157.5C 338.5,159.167 338.5,160.833 338.5,162.5C 338.799,164.604 338.466,166.604 337.5,168.5C 336.828,167.051 336.161,165.718 335.5,164.5C 335.5,162.833 335.5,161.167 335.5,159.5C 335.649,158.448 335.483,157.448 335,156.5C 334.209,157.745 333.709,159.078 333.5,160.5C 333.174,163.311 332.341,165.978 331,168.5C 329.989,169.337 328.822,169.67 327.5,169.5C 326.84,165.687 325.674,162.021 324,158.5C 323.503,160.81 323.337,163.143 323.5,165.5C 322.842,166.398 322.176,167.398 321.5,168.5C 320.534,166.604 320.201,164.604 320.5,162.5C 320.211,158.894 320.544,155.394 321.5,152C 322.944,151.219 324.277,151.386 325.5,152.5C 326.839,155.503 328.173,158.503 329.5,161.5C 331.221,158.672 332.554,155.672 333.5,152.5 Z"/></g>
<g><path style="opacity:1" fill="#363636" d="M 360.5,168.5 C 357.833,168.5 355.167,168.5 352.5,168.5C 347.513,164.554 346.679,159.888 350,154.5C 356.093,150.107 361.093,151.107 365,157.5C 366.61,162.645 365.11,166.312 360.5,168.5 Z M 353.5,155.5 C 360.993,154.829 363.326,157.995 360.5,165C 357.281,167.045 354.448,166.545 352,163.5C 351.282,160.593 351.782,157.926 353.5,155.5 Z"/></g>
<g><path style="opacity:1" fill="#1b1b1b" d="M 379.5,159.5 C 379.539,158.244 379.039,157.244 378,156.5C 377.827,160.541 377.327,164.541 376.5,168.5C 375.505,163.208 375.172,157.875 375.5,152.5C 376.5,152.5 377.5,152.5 378.5,152.5C 381.137,155.989 383.637,159.655 386,163.5C 386.499,159.514 386.666,155.514 386.5,151.5C 387.5,151.5 388.5,151.5 389.5,151.5C 389.5,157.5 389.5,163.5 389.5,169.5C 388.127,169.657 386.793,169.49 385.5,169C 383.364,165.89 381.364,162.723 379.5,159.5 Z"/></g>
<g><path style="opacity:1" fill="#2f2f2f" d="M 408.5,168.5 C 405.833,168.5 403.167,168.5 400.5,168.5C 400.5,163.167 400.5,157.833 400.5,152.5C 410.719,149.88 415.219,153.88 414,164.5C 412.853,166.819 411.019,168.152 408.5,168.5 Z M 403.5,155.5 C 410.199,155.229 412.199,158.229 409.5,164.5C 407.696,165.768 405.696,166.435 403.5,166.5C 403.5,162.833 403.5,159.167 403.5,155.5 Z"/></g>
<g><path style="opacity:1" fill="#2f2f2f" d="M 428.5,152.5 C 429.959,152.433 431.292,152.766 432.5,153.5C 434.595,158.615 436.595,163.782 438.5,169C 436.051,169.775 434.384,168.942 433.5,166.5C 431.257,165.526 428.924,165.192 426.5,165.5C 426.592,169.071 424.926,170.238 421.5,169C 423.757,163.376 426.09,157.876 428.5,152.5 Z M 431.5,160.5 C 431.179,162.048 430.179,162.715 428.5,162.5C 428.5,161.5 428.5,160.5 428.5,159.5C 429.268,158.737 429.768,157.737 430,156.5C 430.41,157.901 430.91,159.234 431.5,160.5 Z"/></g>
<g><path style="opacity:1" fill="#060606" d="M 450.5,166.5 C 452.781,166.077 454.448,166.744 455.5,168.5C 452.833,168.5 450.167,168.5 447.5,168.5C 447.172,163.125 447.505,157.792 448.5,152.5C 449.167,157.317 449.834,161.983 450.5,166.5 Z"/></g>
<g><path style="opacity:0.498" fill="#989898" d="M 333.5,152.5 C 334.919,151.549 336.585,151.216 338.5,151.5C 338.5,153.5 338.5,155.5 338.5,157.5C 337.549,156.081 337.216,154.415 337.5,152.5C 336.167,152.5 334.833,152.5 333.5,152.5 Z"/></g>
<g><path style="opacity:0.369" fill="#9a9a9a" d="M 450.5,166.5 C 449.834,161.983 449.167,157.317 448.5,152.5C 447.505,157.792 447.172,163.125 447.5,168.5C 450.167,168.5 452.833,168.5 455.5,168.5C 452.713,169.477 449.713,169.81 446.5,169.5C 446.5,163.5 446.5,157.5 446.5,151.5C 447.833,151.5 449.167,151.5 450.5,151.5C 450.5,156.5 450.5,161.5 450.5,166.5 Z"/></g>
<g><path style="opacity:0.369" fill="#c0c0c0" d="M 198.5,157.5 C 199.623,156.243 200.289,156.576 200.5,158.5C 199.833,158.167 199.167,157.833 198.5,157.5 Z"/></g>
<g><path style="opacity:0.247" fill="#c4c4c4" d="M 268.5,157.5 C 269.623,156.243 270.289,156.576 270.5,158.5C 269.833,158.167 269.167,157.833 268.5,157.5 Z"/></g>
<g><path style="opacity:0.004" fill="#fefffe" d="M 12.5,157.5 C 13.8333,158.167 13.8333,158.167 12.5,157.5 Z"/></g>
<g><path style="opacity:0.371" fill="#9e9e9e" d="M 241.5,152.5 C 240.5,152.5 239.5,152.5 238.5,152.5C 238.172,157.875 238.505,163.208 239.5,168.5C 240.327,164.541 240.827,160.541 241,156.5C 242.039,157.244 242.539,158.244 242.5,159.5C 241.521,162.625 241.187,165.958 241.5,169.5C 240.167,169.5 238.833,169.5 237.5,169.5C 237.5,163.5 237.5,157.5 237.5,151.5C 239.099,151.232 240.432,151.566 241.5,152.5 Z"/></g>
<g><path style="opacity:0.12" fill="#b7b7b7" d="M 335.5,159.5 C 334.833,159.833 334.167,160.167 333.5,160.5C 333.709,159.078 334.209,157.745 335,156.5C 335.483,157.448 335.649,158.448 335.5,159.5 Z"/></g>
<g><path style="opacity:0.004" fill="#fefffe" d="M 473.5,160.5 C 474.833,161.167 474.833,161.167 473.5,160.5 Z"/></g>
<g><path style="opacity:0.004" fill="#fefffe" d="M 55.5,161.5 C 56.8333,162.167 56.8333,162.167 55.5,161.5 Z"/></g>
<g><path style="opacity:0.62" fill="#7e7e7e" d="M 428.5,159.5 C 428.5,160.5 428.5,161.5 428.5,162.5C 430.179,162.715 431.179,162.048 431.5,160.5C 432.404,161.209 432.737,162.209 432.5,163.5C 430.833,163.5 429.167,163.5 427.5,163.5C 427.232,161.901 427.566,160.568 428.5,159.5 Z"/></g>
<g><path style="opacity:0.499" fill="#8e8e8e" d="M 378.5,152.5 C 377.5,152.5 376.5,152.5 375.5,152.5C 375.172,157.875 375.505,163.208 376.5,168.5C 377.327,164.541 377.827,160.541 378,156.5C 379.039,157.244 379.539,158.244 379.5,159.5C 378.521,162.625 378.187,165.958 378.5,169.5C 377.167,169.5 375.833,169.5 374.5,169.5C 374.5,163.5 374.5,157.5 374.5,151.5C 376.099,151.232 377.432,151.566 378.5,152.5 Z"/></g>
<g><path style="opacity:0.749" fill="#949494" d="M 294.5,162.5 C 295.124,162.917 295.457,163.584 295.5,164.5C 295.253,165.713 294.586,166.38 293.5,166.5C 294.234,165.292 294.567,163.959 294.5,162.5 Z"/></g>
<g><path style="opacity:0.004" fill="#fefffe" d="M 333.5,165.5 C 334.833,166.167 334.833,166.167 333.5,165.5 Z"/></g>
<g><path style="opacity:0.373" fill="#9b9b9b" d="M 338.5,162.5 C 339.468,164.607 339.802,166.941 339.5,169.5C 338.167,169.5 336.833,169.5 335.5,169.5C 335.5,167.833 335.5,166.167 335.5,164.5C 336.161,165.718 336.828,167.051 337.5,168.5C 338.466,166.604 338.799,164.604 338.5,162.5 Z"/></g>
<g><path style="opacity:0.004" fill="#fefffe" d="M 270.5,168.5 C 270.897,167.475 271.563,167.308 272.5,168C 271.906,168.464 271.239,168.631 270.5,168.5 Z"/></g>
<g><path style="opacity:0.004" fill="#fefffe" d="M 167.5,168.5 C 168.833,169.167 168.833,169.167 167.5,168.5 Z"/></g>
<g><path style="opacity:0.631" fill="#929292" d="M 320.5,162.5 C 320.201,164.604 320.534,166.604 321.5,168.5C 322.176,167.398 322.842,166.398 323.5,165.5C 323.5,166.833 323.5,168.167 323.5,169.5C 322.167,169.5 320.833,169.5 319.5,169.5C 319.198,166.941 319.532,164.607 320.5,162.5 Z"/></g>
<g><path style="opacity:0.749" fill="#8b8b8b" d="M 352.5,168.5 C 355.167,168.5 357.833,168.5 360.5,168.5C 357.711,170.714 355.044,170.714 352.5,168.5 Z"/></g>
<g><path style="opacity:0.622" fill="#999999" d="M 400.5,152.5 C 400.5,157.833 400.5,163.167 400.5,168.5C 403.167,168.5 405.833,168.5 408.5,168.5C 405.713,169.477 402.713,169.81 399.5,169.5C 399.178,163.642 399.511,157.975 400.5,152.5 Z"/></g>
<g><path style="opacity:0.004" fill="#fefffe" d="M 172.5,176.5 C 173.833,177.167 173.833,177.167 172.5,176.5 Z"/></g>
<g><path style="opacity:0.004" fill="#fefffe" d="M 268.5,177.5 C 269.833,178.167 269.833,178.167 268.5,177.5 Z"/></g>
<g><path style="opacity:0.004" fill="#fefffe" d="M 402.5,180.5 C 403.833,181.167 403.833,181.167 402.5,180.5 Z"/></g>
<g><path style="opacity:0.004" fill="#fefffe" d="M 395.5,181.5 C 396.833,182.167 396.833,182.167 395.5,181.5 Z"/></g>
<g><path style="opacity:0.004" fill="#fefffe" d="M 193.5,187.5 C 194.833,188.167 194.833,188.167 193.5,187.5 Z"/></g>
<g><path style="opacity:0.004" fill="#fefffe" d="M 90.5,190.5 C 91.8333,191.167 91.8333,191.167 90.5,190.5 Z"/></g>
<g><path style="opacity:0.004" fill="#fefffe" d="M 496.5,190.5 C 497.833,191.167 497.833,191.167 496.5,190.5 Z"/></g>
<g><path style="opacity:0.004" fill="#fefffe" d="M 450.5,191.5 C 451.833,192.167 451.833,192.167 450.5,191.5 Z"/></g>
<g><path style="opacity:0.004" fill="#fefffe" d="M 45.5,195.5 C 46.8333,196.167 46.8333,196.167 45.5,195.5 Z"/></g>
<g><path style="opacity:0.004" fill="#fefffe" d="M 285.5,195.5 C 286.833,196.167 286.833,196.167 285.5,195.5 Z"/></g>
</svg>
